HIERARCHY
ROOT Hips
{
  OFFSET 40.9192 92.6879 18.85
  CHANNELS 6 Xposition Yposition Zposition Zrotation Xrotation Yrotation
  JOINT LeftUpLeg
  {
    OFFSET 8.64259 1.95398 -2.38835
    CHANNELS 3 Zrotation Xrotation Yrotation
    JOINT LeftLeg
    {
      OFFSET 43.7702 0 0
      CHANNELS 3 Zrotation Xrotation Yrotation
      JOINT LeftFoot
      {
        OFFSET 40.6238 0 0
        CHANNELS 3 Zrotation Xrotation Yrotation
        JOINT LeftToeBase
        {
          OFFSET 12.7242 0 0
          CHANNELS 3 Zrotation Xrotation Yrotation
          End Site
          {
            OFFSET 0 0 0
          }
        }
      }
    }
  }
  JOINT RightUpLeg
  {
    OFFSET -8.2249 1.95398 -2.59336
    CHANNELS 3 Zrotation Xrotation Yrotation
    JOINT RightLeg
    {
      OFFSET 43.5653 0 0
      CHANNELS 3 Zrotation Xrotation Yrotation
      JOINT RightFoot
      {
        OFFSET 40.6238 0 0
        CHANNELS 3 Zrotation Xrotation Yrotation
        JOINT RightToeBase
        {
          OFFSET 12.7242 0 0
          CHANNELS 3 Zrotation Xrotation Yrotation
          End Site
          {
            OFFSET 0 0 0
          }
        }
      }
    }
  }
  JOINT Spine
  {
    OFFSET 0.165834 0.87714 6.61349
    CHANNELS 3 Zrotation Xrotation Yrotation
    JOINT Spine1
    {
      OFFSET 7.38963 1.71661e-005 0
      CHANNELS 3 Zrotation Xrotation Yrotation
      JOINT Spine2
      {
        OFFSET 11.9445 1.14441e-005 0
        CHANNELS 3 Zrotation Xrotation Yrotation
        JOINT Spine3
        {
          OFFSET 14.7254 4.19617e-005 0
          CHANNELS 3 Zrotation Xrotation Yrotation
          JOINT Spine4
          {
            OFFSET 10.9679 0 0
            CHANNELS 3 Zrotation Xrotation Yrotation
            JOINT RightShoulder
            {
              OFFSET 2.46616 -1.6653 3.69651
              CHANNELS 3 Zrotation Xrotation Yrotation
              JOINT RightArm
              {
                OFFSET 13.0012 0 0
                CHANNELS 3 Zrotation Xrotation Yrotation
                JOINT RightForeArm
                {
                  OFFSET 28.7848 1.52588e-005 0
                  CHANNELS 3 Zrotation Xrotation Yrotation
                  JOINT RightHand
                  {
                    OFFSET 26.5688 1.52588e-005 0
                    CHANNELS 3 Zrotation Xrotation Yrotation
                    End Site
                    {
                      OFFSET 0 0 0
                    }
                  }
                }
              }
            }
            JOINT LeftShoulder
            {
              OFFSET 2.38034 -1.29275 -3.7523
              CHANNELS 3 Zrotation Xrotation Yrotation
              JOINT LeftArm
              {
                OFFSET 16.3182 6.10351e-005 0
                CHANNELS 3 Zrotation Xrotation Yrotation
                JOINT LeftForeArm
                {
                  OFFSET 27.0901 0 0
                  CHANNELS 3 Zrotation Xrotation Yrotation
                  JOINT LeftHand
                  {
                    OFFSET 24.5451 1.52588e-005 0
                    CHANNELS 3 Zrotation Xrotation Yrotation
                    End Site
                    {
                      OFFSET 0 0 0
                    }
                  }
                }
              }
            }
            JOINT Neck
            {
              OFFSET 5.0226 -0.0266342 0
              CHANNELS 3 Zrotation Xrotation Yrotation
              JOINT Head
              {
                OFFSET 6.69363 2.86102e-005 0
                CHANNELS 3 Zrotation Xrotation Yrotation
                End Site
                {
                  OFFSET 0 0 0
                }
              }
            }
          }
        }
      }
    }
  }
}
MOTION
Frames:	8
Frame Time:	0.0416667
-293.604 89.0825 -283.843 105.318 -76.3689 100.644 175.682 19.9156 66.4384 10.0937 -60.4939 78.5428 -41.2192 -51.0247 -119.615 -15.188 -24.654 -18.4013 155.412 18.538 68.4055 -130.276 82.3678 79.5597 23.0541 16.7351 26.2712 -60.8534 70.2187 -69.3652 0.807306 9.14654 -89.2387 8.5673 1.94783 1.38215 -3.10284 2.00677 1.29506 -25.6393 1.44245 1.9036 -5.62663 1.44246 1.9036 87.6945 -55.3254 -102.963 3.80162 -1.26389 -61.4857 -14.3381 -20.702 -61.2954 24.2056 -3.01418 -14.6569 -77.4622 -56.4471 97.6442 -32.0297 19.1003 22.3087 60.2917 0.0604929 -86.0411 -21.6738 -4.89974 23.3751 11.0125 16.0541 3.30235 6.93339 15.4556 4.34583 
-290.728 92.4878 -280.29 100.956 -76.727 96.0768 -161.172 14.6285 99.799 -88.8045 -46.3429 -32.2116 44.7144 -14.153 -77.8491 14.4916 -4.68288 -25.4482 138.236 17.4246 67.0975 -51.8825 69.4328 15.3947 25.2896 10.3683 17.1819 -90.7573 61.2266 -38.4953 1.98895 9.77649 -89.0538 7.29138 4.38018 1.66423 -4.37291 4.44915 1.46952 -26.9452 3.67748 2.90481 -6.93254 3.6775 2.90482 91.5875 -47.6359 -98.8684 15.4553 0.643392 -34.4956 -44.892 -4.38715 -86.7913 41.3578 -10.6994 -23.2514 -93.0702 -52.0314 74.6826 -34.2651 16.3717 25.629 25.5684 3.35795 -76.0487 5.48718 1.68845 27.872 15.1219 11.4121 -0.365408 8.88143 12.0822 7.39101 
-288.973 93.9021 -277.053 83.5609 -76.1668 76.9712 -152.956 17.5084 88.2425 -63.8291 -20.5308 -7.75283 53.073 -1.25717 -34.0873 45.8752 12.8349 -6.0336 129.309 21.109 68.2115 -34.4822 55.8843 4.33079 19.2541 5.71651 12.4318 -96.4334 46.3101 -27.5393 2.43763 9.6666 -88.4169 7.46396 5.55302 2.84173 -4.19763 5.67266 2.59406 -26.7745 4.44271 4.38026 -6.76182 4.44272 4.38026 94.7442 -41.9271 -94.8056 31.976 1.17727 -6.96478 -103.727 25.1036 -79.366 51.039 -36.65 -58.7729 -94.2788 -45.5471 71.0733 -39.6559 15.1593 32.9365 1.89288 -1.45914 -71.1218 32.6566 5.00137 11.4014 17.8274 8.58126 -6.58416 9.70792 11.4532 11.1697 
-286.329 93.037 -272.549 68.2962 -71.5266 62.1738 -152.214 31.1521 83.4282 -56.0353 12.8681 -8.00941 54.9443 -1.27114 2.23619 43.9332 13.6432 14.9044 156.613 10.0995 68.1125 -31.0226 64.5747 6.49359 2.6477 2.14439 13.417 -105.691 -1.19135 -6.13951 2.4325 8.8806 -88.2142 9.02541 5.64851 3.13999 -2.63645 5.78118 2.88786 -25.2078 4.44448 4.69302 -5.19514 4.44447 4.69301 95.3117 -39.3318 -94.2604 36.5214 1.31512 1.69004 -133.12 25.4667 -60.9743 34.4261 -41.3535 -84.0343 -91.2905 -41.6863 74.6685 -45.205 15.9927 40.5493 -2.92919 -2.92038 -71.8125 32.2344 1.67171 1.07878 16.4207 7.79263 -6.6567 10.274 10.5429 9.82276 
-281.157 91.9474 -266.554 69.0499 -63.7764 67.0413 -159.22 42.9353 85.5207 -48.6647 17.4665 -7.56106 54.4851 -3.50971 1.3126 41.9766 11.9022 16.3388 172.733 -0.792917 80.1533 -20.8059 -1.68871 -7.57083 -8.24803 9.97283 23.4704 64.3108 9.34065 29.0333 2.1429 8.3483 -88.7253 10.1324 4.85104 2.12312 -1.53091 4.93976 1.90716 -24.1051 3.98881 3.48403 -4.0925 3.98882 3.48404 95.4947 -37.4788 -94.2531 36.2899 -0.331739 2.33629 -126.907 29.1002 -65.6552 45.6711 -46.0376 -76.1185 -91.2003 -39.5408 74.1974 -48.6934 13.4582 45.4398 0.0335537 -2.53899 -73.7893 29.667 1.36455 0.694884 15.9099 6.78066 -4.79836 8.95165 8.74083 7.95671 
-273.978 92.0636 -259.232 68.4254 -56.4323 70.8282 -166.441 48.1242 87.0838 -38.6257 21.4053 -6.02913 54.5046 -3.50218 3.35072 43.3311 12.9969 14.0227 176.915 2.50273 87.0877 -39.221 -19.4365 -11.1487 13.5926 12.5642 17.7362 29.4532 -0.326975 -4.38609 1.76315 7.80916 -89.2213 11.2372 3.87118 1.16584 -0.428358 3.91875 0.994092 -22.9959 3.34172 2.27637 -2.98328 3.34173 2.27638 95.8819 -36.0562 -93.7891 35.6956 -5.49621 3.68008 -76.1624 32.4162 -101.249 75.6029 -32.2993 -25.71 -91.5648 -38.7803 73.357 -50.0359 10.9085 47.9074 0.617596 -2.57996 -76.4891 31.3608 1.96234 2.4772 15.5327 6.32628 -2.18322 7.7247 7.30151 5.61395 
-266.583 92.5116 -251.435 68.8873 -56.014 74.5853 -166.579 47.1264 89.4117 -34.2585 16.6928 -6.22463 56.0694 -2.67449 0.326103 44.2392 14.1717 15.9404 179.191 3.18295 89.1218 -49.3978 -14.7495 -8.51925 32.9601 6.96532 7.73505 6.51664 1.94567 -11.3973 1.85713 7.6095 -89.5007 11.6503 3.9282 0.585452 -0.0147603 3.95016 0.411715 -22.59 3.57043 1.74037 -2.57736 3.57042 1.74036 95.8331 -36.2225 -93.849 35.484 -12.8426 5.69228 -23.8353 -0.835196 -118.83 8.6841 3.97353 10.614 -90.4697 -38.4788 75.1232 -49.4392 9.54414 46.37 -1.183 -2.87858 -78.0395 35.41 1.41845 0.0107133 14.0882 6.06665 -2.41632 8.65315 7.109 5.41306 
-259.96 91.6805 -243.717 73.6691 -55.2783 79.7019 -165.247 43.3143 89.4641 -36.8108 16.2779 -6.91331 55.1457 -3.41547 -1.6386 44.6606 14.7613 17.1594 179.834 3.39354 90.1524 -60.7077 -7.11776 -6.27096 49.1047 1.39231 1.21369 -16.9509 2.81937 -10.8345 1.74266 7.70515 -89.6582 11.4629 3.62692 0.310752 -0.203051 3.63708 0.1506 -22.7742 3.36568 1.38764 -2.76153 3.36567 1.38763 95.8025 -38.5487 -93.5198 34.4146 -19.856 9.23386 -24.155 -5.00948 -102.526 -2.38964 -0.424529 1.37768 -91.2545 -42.4946 74.9459 -43.8197 7.981 43.1776 2.57315 -2.27399 -80.4101 34.2706 2.25747 2.72014 12.4127 6.14762 -2.00139 8.51063 6.9338 4.23787 
